<svg width="32" height="44" viewBox="0 0 32 44" fill="none" xmlns="http://www.w3.org/2000/svg">
<path fill="black" d="M19.6133 16.7788C19.7923 16.7788 20.0975 16.8073 20.5288 16.8643C20.9601 16.9212 21.4321 17.084 21.9448 17.3525C22.4657 17.613 22.9377 18.0483 23.3608 18.6587C23.3364 18.6831 23.2184 18.7726 23.0068 18.9272C22.7952 19.0737 22.5592 19.2935 22.2988 19.5864C22.0384 19.8713 21.8105 20.2375 21.6152 20.6851C21.4199 21.1245 21.3223 21.6494 21.3223 22.2598C21.3223 22.9596 21.4443 23.5537 21.6885 24.042C21.9408 24.5303 22.2297 24.925 22.5552 25.2261C22.8888 25.519 23.1818 25.7347 23.4341 25.873C23.6945 26.0114 23.8328 26.0846 23.8491 26.0928C23.841 26.1253 23.7352 26.4142 23.5317 26.9595C23.3364 27.5047 23.0109 28.111 22.5552 28.7783C22.1564 29.3561 21.7251 29.8892 21.2612 30.3774C20.8055 30.8657 20.2562 31.1099 19.6133 31.1099C19.182 31.1099 18.828 31.0488 18.5513 30.9268C18.2746 30.7965 17.9897 30.6704 17.6968 30.5483C17.4038 30.4181 17.0091 30.353 16.5127 30.353C16.0326 30.353 15.6297 30.4181 15.3042 30.5483C14.9868 30.6785 14.6816 30.8088 14.3887 30.939C14.1038 31.0692 13.7661 31.1343 13.3755 31.1343C12.7814 31.1343 12.2606 30.8983 11.813 30.4263C11.3654 29.9543 10.9056 29.3887 10.4336 28.7295C9.88835 27.9482 9.42041 26.9961 9.02979 25.873C8.6473 24.7419 8.45605 23.6025 8.45605 22.4551C8.45605 21.2262 8.68799 20.1968 9.15186 19.3667C9.61572 18.5285 10.2098 17.8978 10.9341 17.4746C11.6665 17.0433 12.4233 16.8276 13.2046 16.8276C13.6196 16.8276 14.0103 16.8968 14.3765 17.0352C14.7427 17.1654 15.0845 17.2996 15.4019 17.438C15.7274 17.5763 16.0203 17.6455 16.2808 17.6455C16.533 17.6455 16.826 17.5723 17.1597 17.4258C17.4933 17.2793 17.8677 17.1369 18.2827 16.9985C18.6978 16.8521 19.1413 16.7788 19.6133 16.7788ZM18.9419 15.2285C18.6245 15.611 18.2257 15.9325 17.7456 16.1929C17.2655 16.4451 16.8097 16.5713 16.3784 16.5713C16.2889 16.5713 16.2035 16.5632 16.1221 16.5469C16.1139 16.5225 16.1058 16.4777 16.0977 16.4126C16.0895 16.3475 16.0854 16.2783 16.0854 16.2051C16.0854 15.7168 16.1912 15.2448 16.4028 14.7891C16.6144 14.3252 16.8545 13.9427 17.123 13.6416C17.4648 13.2347 17.8962 12.897 18.417 12.6284C18.9378 12.3599 19.4342 12.2174 19.9062 12.2012C19.9307 12.307 19.9429 12.4331 19.9429 12.5796C19.9429 13.0679 19.8493 13.5439 19.6621 14.0078C19.4749 14.4635 19.2349 14.8704 18.9419 15.2285Z"/>
</svg>
